<svg xmlns="http://www.w3.org/2000/svg" width="410.107" height="275.225" viewBox="0 0 410.107 275.225"><g fill="#97ACBB"><path d="M205.172 57.509c0-8.936-1.167-16.962-3.502-24.07-2.341-7.105-5.643-13.133-9.923-18.088-4.267-4.955-9.402-8.752-15.398-11.39C170.358 1.321 163.735 0 156.481 0c-7.203 0-13.787 1.321-19.752 3.961-5.966 2.638-11.083 6.435-15.357 11.39-4.273 4.955-7.605 10.982-9.996 18.088-2.393 7.108-3.588 15.135-3.588 24.07v5.976c0 8.94 1.195 16.949 3.588 24.03 2.391 7.08 5.75 13.084 10.076 18.012 4.326 4.926 9.472 8.707 15.437 11.347 5.969 2.642 12.55 3.961 19.752 3.961 7.255 0 13.871-1.319 19.832-3.961 5.963-2.64 11.077-6.421 15.315-11.347 4.253-4.928 7.541-10.932 9.882-18.012 2.335-7.081 3.502-15.09 3.502-24.03v-5.976zm-20.395 5.975c0 13.249-2.432 23.318-7.296 30.207-4.864 6.894-11.806 10.341-20.84 10.341-4.35 0-8.29-.875-11.81-2.627-3.52-1.751-6.519-4.329-8.988-7.755-2.474-3.419-4.368-7.654-5.685-12.717-1.316-5.062-1.974-10.879-1.974-17.449V57.35c0-6.57.658-12.373 1.974-17.407 1.316-5.035 3.197-9.249 5.643-12.64 2.445-3.392 5.413-5.962 8.909-7.714 3.495-1.751 7.414-2.626 11.771-2.626 4.461 0 8.45.875 11.973 2.626 3.517 1.752 6.491 4.322 8.908 7.714 2.419 3.391 4.252 7.604 5.518 12.64 1.265 5.034 1.897 10.837 1.897 17.407v6.134zM259.192 119.215c8.109 0 15.489-1.312 22.126-3.954 6.643-2.64 12.307-6.379 17.01-11.229 4.704-4.844 8.332-10.702 10.883-17.567 2.557-6.865 3.835-14.551 3.835-23.06V57.59c0-8.506-1.292-16.206-3.877-23.099-2.577-6.894-6.192-12.775-10.841-17.65-4.647-4.871-10.214-8.627-16.69-11.268-6.477-2.634-13.635-3.953-21.486-3.953h-34.66v117.595h33.7zm.959-101.119c10.534 0 18.574 3.366 24.112 10.097 5.531 6.729 8.297 16.475 8.297 29.236v5.977c0 6.14-.694 11.657-2.091 16.56-1.396 4.899-3.482 9.043-6.248 12.435-2.766 3.391-6.254 5.99-10.437 7.797-4.197 1.807-9.062 2.709-14.593 2.709h-13.307v-84.81h14.267zM401.963 50.563h-48.211V18.096h55.785V1.62h-76.18v117.595h76.75v-16.31h-56.355V66.716h48.211V50.563zM72.959 235.323c-.482 3.766-1.274 7.102-2.375 10.014-1.102 2.905-2.648 5.357-4.635 7.345-1.99 1.995-4.503 3.503-7.54 4.524-3.036 1.022-6.761 1.536-11.166 1.536-4.729 0-8.787-.946-12.171-2.821-3.388-1.891-6.157-4.545-8.304-7.965-2.151-3.418-3.739-7.52-4.756-12.313-1.021-4.794-1.533-10.124-1.533-15.995v-9.687c0-6.192.577-11.717 1.734-16.56 1.154-4.844 2.888-8.93 5.198-12.237 2.31-3.308 5.201-5.844 8.668-7.595 3.464-1.744 7.509-2.62 12.133-2.62 4.189 0 7.766.535 10.721 1.612 2.954 1.077 5.4 2.654 7.335 4.726 1.935 2.07 3.426 4.593 4.476 7.554 1.049 2.96 1.786 6.303 2.216 10.013h20.315c-.59-5.864-1.945-11.278-4.068-16.232-2.126-4.955-5.053-9.222-8.788-12.8-3.738-3.586-8.293-6.379-13.665-8.401-5.379-2.021-11.556-3.03-18.543-3.03-7.367 0-14.016 1.321-19.953 3.954-5.942 2.642-11.005 6.38-15.198 11.229-4.194 4.851-7.418 10.701-9.672 17.566C1.13 194.005 0 201.663 0 210.12v9.527c0 8.511 1.102 16.185 3.308 23.021 2.203 6.838 5.361 12.668 9.472 17.491 4.11 4.815 9.082 8.533 14.912 11.145 5.833 2.613 12.348 3.92 19.551 3.92 7.202 0 13.557-1 19.067-2.996 5.506-1.994 10.169-4.76 13.988-8.317 3.815-3.558 6.795-7.768 8.947-12.641 2.15-4.871 3.495-10.193 4.03-15.947H72.959zM205.172 211.892c0-8.936-1.167-16.955-3.502-24.063-2.341-7.109-5.643-13.14-9.923-18.088-4.267-4.961-9.402-8.755-15.398-11.396-5.99-2.633-12.613-3.954-19.867-3.954-7.203 0-13.787 1.321-19.752 3.954-5.966 2.642-11.083 6.436-15.357 11.396-4.273 4.948-7.605 10.979-9.996 18.088-2.393 7.108-3.588 15.128-3.588 24.063v5.984c0 8.935 1.195 16.947 3.588 24.027 2.391 7.081 5.75 13.086 10.076 18.012 4.326 4.928 9.472 8.709 15.437 11.349 5.969 2.634 12.55 3.961 19.752 3.961 7.255 0 13.871-1.327 19.832-3.961 5.963-2.64 11.077-6.421 15.315-11.349 4.253-4.926 7.541-10.931 9.882-18.012 2.335-7.08 3.502-15.093 3.502-24.027v-5.984zm-20.395 5.984c0 13.244-2.432 23.312-7.296 30.205s-11.806 10.34-20.84 10.34c-4.35 0-8.29-.874-11.81-2.626-3.52-1.751-6.519-4.337-8.988-7.755-2.474-3.418-4.368-7.656-5.685-12.717-1.316-5.065-1.974-10.881-1.974-17.447v-6.137c0-6.574.658-12.376 1.974-17.414 1.316-5.031 3.197-9.242 5.643-12.633s5.413-5.962 8.909-7.713c3.495-1.752 7.414-2.627 11.771-2.627 4.461 0 8.45.875 11.973 2.627 3.517 1.751 6.491 4.322 8.908 7.713 2.419 3.391 4.252 7.602 5.518 12.633 1.265 5.038 1.897 10.84 1.897 17.414v6.137zM294.097 204.95h-48.211v-32.473h55.792v-16.476h-76.187v117.603h76.743V257.29h-56.349v-36.184h48.211V204.95zM48.211 16.56c4.189 0 7.766.539 10.721 1.616 2.954 1.077 5.4 2.654 7.335 4.725 1.935 2.075 3.426 5.164 4.476 8.125 1.049 2.959 1.786 2.587 2.216 10.587h20.315c-.59-8-1.945-11.853-4.068-16.808-2.126-4.955-5.053-9.504-8.788-13.086C76.68 8.14 72.125 5.19 66.753 3.172 61.691 1.273 55.86.276 49.374.164L39.206 18.128c2.733-.913 5.663-1.568 9.005-1.568zM21.499 50.825L2.477 83.805c.369 1.521.559 3.028 1.028 4.478 2.203 6.842 5.264 12.664 9.375 17.486s9.032 8.533 14.861 11.146c5.833 2.612 12.322 3.919 19.525 3.919 7.202 0 13.545-1.001 19.056-2.987 5.507-1.995 10.163-4.768 13.981-8.325 3.815-3.551 6.794-6.423 8.945-11.295 2.15-4.877 3.492-8.614 4.027-14.614H72.959c-.482 0-1.274 5.769-2.375 8.673-1.102 2.912-2.648 4.693-4.635 6.68-1.99 2.001-4.503 3.172-7.54 4.194-3.036 1.021-6.761 1.36-11.166 1.36-4.729 0-8.787-1.025-12.171-2.908-3.388-1.891-6.157-4.576-8.304-7.993-2.151-3.42-2.949-7.548-3.969-12.342-1.022-4.789-.745-10.145-.745-16.012v-9.693c0-1.676-.638-3.175-.555-4.747z"/><path fill-rule="evenodd" clip-rule="evenodd" d="M382.785 157.815l17.372 6.512-59.67 109.251-17.365-6.513 59.663-109.25z"/></g></svg>